<svg width="72" height="42" viewBox="0 0 72 42" fill="none" xmlns="http://www.w3.org/2000/svg">
<path d="M28.0177 22.2223H0V14.7693H2.76036V8.46651H0V1.01353H28.0177V8.46651H25.2573V14.7693H28.0177V22.2223ZM21.9909 41.3148C18.9545 41.3148 16.2861 41.1308 13.9398 40.8088C11.5475 40.4407 9.56926 39.9347 7.95905 39.2906C6.30283 38.5545 5.06067 37.6804 4.23256 36.6222C3.35844 35.5181 2.94439 34.1839 2.94439 32.6657C2.94439 31.1935 3.35844 29.8593 4.23256 28.7552C5.06067 27.697 6.30283 26.8229 7.95905 26.0868C9.56926 25.3967 11.5475 24.8907 13.9398 24.5226C16.2861 24.2466 18.9545 24.0626 21.9909 24.0626C24.9813 24.0626 27.6496 24.2466 30.042 24.5226C32.3883 24.8907 34.3665 25.3967 36.0227 26.0868C37.633 26.8229 38.8751 27.697 39.7492 28.7552C40.5773 29.8593 41.0374 31.1935 41.0374 32.6657C41.0374 34.1839 40.5773 35.5181 39.7492 36.6222C38.8751 37.6804 37.633 38.5545 36.0227 39.2906C34.3665 39.9347 32.3883 40.4407 30.042 40.8088C27.6496 41.1308 24.9813 41.3148 21.9909 41.3148ZM40.1173 0.553467V23.3725H30.594V0.553467H40.1173ZM21.9909 34.782C24.9353 34.782 27.2356 34.5979 28.9838 34.2759C30.64 33.9539 31.5142 33.4018 31.5142 32.6657C31.5142 31.9296 30.64 31.4235 28.9838 31.0555C27.2356 30.7334 24.9353 30.5494 21.9909 30.5494C19.0465 30.5494 16.7002 30.7334 15.044 31.0555C13.2958 31.4235 12.4676 31.9296 12.4676 32.6657C12.4676 33.4018 13.2958 33.9539 15.044 34.2759C16.7002 34.5979 19.0465 34.782 21.9909 34.782ZM11.5935 14.7693H16.4242V8.46651H11.5935V14.7693Z" fill="#FF9603"/>
<path d="M47.3114 31.4302C48.37 33.4844 49.3828 35.2152 50.1276 36.4277V36.4284C51.7069 38.9972 55.101 39.6627 57.5332 37.8804L57.5339 37.8796C59.209 36.6508 61.83 34.6145 64.5277 32.0705C65.8711 33.0304 66.6647 34.209 66.6647 35.485C66.6647 38.7046 61.6217 41.315 55.4014 41.3151C49.1809 41.3151 44.138 38.7046 44.138 35.485C44.1381 33.9087 45.3474 32.4795 47.3114 31.4302ZM45.2709 10.6706C46.6794 3.48459 53.7513 -1.17327 61.0615 0.259341C68.3718 1.6921 73.1627 8.67506 71.7543 15.8613C70.3229 23.1644 62.106 30.4734 57.3415 34.1783C57.1349 34.339 56.9352 34.4935 56.7424 34.6403C56.6169 34.7359 56.4946 34.8286 56.3755 34.9181C56.2266 35.0301 56.0823 35.1365 55.9442 35.2386C55.8674 35.2955 55.7936 35.3526 55.7203 35.4063C54.7335 36.1296 53.3817 35.8645 52.7409 34.8223C50.0154 30.385 43.6584 18.8981 45.2709 10.6706ZM56.5171 22.5765C55.2609 22.3729 54.0774 23.226 53.8738 24.4822C53.6703 25.7382 54.5235 26.9218 55.7795 27.1254L55.8911 27.1434C57.1469 27.3467 58.3298 26.4935 58.5336 25.2377C58.7372 23.9816 57.884 22.798 56.6279 22.5944L56.5171 22.5765ZM59.3048 5.72855C58.0181 5.52 56.8058 6.39395 56.5972 7.68066L54.8727 18.3188C54.6642 19.6055 55.5382 20.8178 56.8248 21.0265C58.1116 21.235 59.3239 20.3611 59.5325 19.0743L61.2569 8.4362C61.4655 7.1495 60.5915 5.93722 59.3048 5.72855Z" fill="#FF9603"/>
</svg>
